<?xml version="1.0" standalone="no"?>
<!DOCTYPE svg PUBLIC "-//W3C//DTD SVG 20010904//EN"
 "http://www.w3.org/TR/2001/REC-SVG-20010904/DTD/svg10.dtd">
<svg version="1.0" xmlns="http://www.w3.org/2000/svg"
 width="100.000000pt" height="100.000000pt" viewBox="0 0 100.000000 100.000000"
 preserveAspectRatio="xMidYMid meet">
<metadata>
Created by potrace 1.14, written by Peter Selinger 2001-2017
</metadata>
<g transform="translate(0.000000,100.000000) scale(0.100000,-0.100000)"
fill="#000000" stroke="none">
<path d="M558 873 c-10 -2 -18 -8 -18 -13 0 -4 -14 -13 -31 -20 -24 -10 -37
-10 -69 0 -66 22 -95 3 -125 -77 -1 -1 -18 3 -38 9 -52 16 -71 -4 -68 -70 2
-44 -1 -52 -35 -85 -43 -41 -47 -75 -15 -118 l22 -30 -25 -20 c-42 -33 -26
-99 23 -99 25 0 47 -29 55 -70 11 -59 30 -75 86 -74 46 0 49 -1 54 -29 12 -62
40 -71 92 -32 35 27 64 31 96 14 11 -6 35 -8 54 -4 32 6 48 25 69 82 1 1 18
-3 38 -9 54 -17 76 5 69 70 -4 44 -2 50 33 84 24 23 38 45 38 62 0 29 -28 76
-44 76 -6 0 3 13 21 30 42 39 39 80 -6 95 -43 14 -64 34 -64 60 0 12 -10 37
-23 56 -21 31 -28 34 -69 32 -44 -1 -46 0 -52 30 -10 51 -25 62 -68 50z"/>
</g>
</svg>
